/* XPM */
static char *fb820aca77e34ffeea378b99621398f8[] = {
/* columns rows colors chars-per-pixel */
"64 64 253 2 ",
"   c #010202",
".  c #06090A",
"X  c #050A0B",
"o  c #050C13",
"O  c #0E1311",
"+  c #171916",
"@  c #1D1E18",
"#  c #28221D",
"$  c #000E28",
"%  c #02142C",
"&  c #091B2A",
"*  c #141D26",
"=  c #051A34",
"-  c #071936",
";  c #031B3C",
":  c #1B2528",
">  c #072736",
",  c #112C31",
"<  c #063239",
"1  c #272926",
"2  c #2C2E2C",
"3  c #293538",
"4  c #343835",
"5  c #4A3C38",
"6  c #53443D",
"7  c #794B3E",
"8  c #041E41",
"9  c #042244",
"0  c #0A2444",
"q  c #062649",
"w  c #09254A",
"e  c #042A4C",
"r  c #0B2A4C",
"t  c #122B4B",
"y  c #0A3645",
"u  c #123A4B",
"i  c #062C55",
"p  c #0B2D52",
"a  c #072C58",
"s  c #132D52",
"d  c #0C3355",
"f  c #073758",
"g  c #04345B",
"h  c #0E3659",
"j  c #0C3A5C",
"k  c #143455",
"l  c #173A5A",
"z  c #2A3D46",
"x  c #233D5C",
"c  c #053A63",
"v  c #0B3C63",
"b  c #083C67",
"n  c #133E64",
"m  c #183E68",
"M  c #0D4652",
"N  c #354546",
"B  c #28445B",
"V  c #314A53",
"C  c #3A674B",
"Z  c #084467",
"A  c #0B436C",
"S  c #0B4C6C",
"D  c #124365",
"F  c #13446A",
"G  c #1A4869",
"H  c #0D526E",
"J  c #0D5B6E",
"K  c #14546D",
"L  c #0C4472",
"P  c #0C4B74",
"I  c #0B4A7A",
"U  c #124C73",
"Y  c #1A4B75",
"T  c #124C7B",
"R  c #0D5472",
"E  c #0D577A",
"W  c #125573",
"Q  c #145975",
"!  c #13547B",
"~  c #1A5678",
"^  c #145C7B",
"/  c #1B5D7B",
"(  c #254667",
")  c #294564",
"_  c #2B4B6C",
"`  c #32576A",
"'  c #264E75",
"]  c #295577",
"[  c #345574",
"{  c #0A657A",
"}  c #15677A",
"|  c #14627D",
" . c #1C637D",
".. c #26667B",
"X. c #356370",
"o. c #4E5050",
"O. c #695352",
"+. c #4E6F57",
"@. c #6E645A",
"#. c #435D73",
"$. c #52686E",
"%. c #6F6D68",
"&. c #697464",
"*. c #825F4C",
"=. c #8A7154",
"-. c #8D7A73",
";. c #548536",
":. c #6F9447",
">. c #949760",
",. c #948A72",
"<. c #A3A968",
"1. c #0D4E81",
"2. c #0D5486",
"3. c #155586",
"4. c #135C83",
"5. c #1B5D83",
"6. c #135B8B",
"7. c #1A5D8B",
"8. c #175D93",
"9. c #245B84",
"0. c #355E85",
"q. c #0E6687",
"w. c #146384",
"e. c #1B6483",
"r. c #1C6A85",
"t. c #13648B",
"y. c #1B638B",
"u. c #156B8A",
"i. c #1C6B8C",
"p. c #18738A",
"a. c #1A6993",
"s. c #1B7394",
"d. c #19779A",
"f. c #226483",
"g. c #276A87",
"h. c #23648B",
"j. c #246C8C",
"k. c #366687",
"l. c #27738C",
"z. c #357589",
"x. c #246C92",
"c. c #286A96",
"v. c #366C94",
"b. c #247393",
"n. c #2B7495",
"m. c #29779A",
"M. c #2D7C9C",
"N. c #357798",
"B. c #327C9C",
"V. c #1A7BA3",
"C. c #2A6EA1",
"Z. c #267BA6",
"A. c #2C7DA3",
"S. c #357BA7",
"D. c #4A6986",
"F. c #48758A",
"G. c #55758B",
"H. c #416E92",
"J. c #4A7596",
"K. c #577B96",
"L. c #6B7D88",
"P. c #4C7BA4",
"I. c #1B849C",
"U. c #2A829E",
"Y. c #38849C",
"T. c #1C84A8",
"R. c #1E8BB4",
"E. c #2986A7",
"W. c #3383A3",
"Q. c #3787A9",
"!. c #3093AF",
"~. c #268AB3",
"^. c #378AB4",
"/. c #2796BA",
"(. c #3A97B6",
"). c #37A2BC",
"_. c #50889B",
"`. c #718C94",
"'. c #4686A8",
"]. c #5987A5",
"[. c #4E90B0",
"{. c #4598B7",
"}. c #5698B7",
"|. c #6988A5",
" X c #7897AA",
".X c #6F97B0",
"XX c #6899B6",
"oX c #53A3BA",
"OX c #6EA2B6",
"+X c #1D99C5",
"@X c #239CC4",
"#X c #2B9CC4",
"$X c #379AC3",
"%X c #29A6CB",
"&X c #37A8CB",
"*X c #31AED1",
"=X c #34ADD1",
"-X c #2EB7D9",
";X c #37B7D9",
":X c #33BBDD",
">X c #2DBEE0",
",X c #34BDE0",
"<X c #3CBEE0",
"1X c #4499C3",
"2X c #5A92C0",
"3X c #699FC0",
"4X c #49A7C7",
"5X c #54AAC9",
"6X c #52B1CE",
"7X c #46B8D7",
"8X c #54B7D7",
"9X c #6CAEC7",
"0X c #78B6CB",
"qX c #68BAD7",
"wX c #79BCD4",
"eX c #43BFE2",
"rX c #39C5E5",
"tX c #49C1DE",
"yX c #59C2DE",
"uX c #6DC5D9",
"iX c #79C4DA",
"pX c #49C9E6",
"aX c #57C6E4",
"sX c #46D2F0",
"dX c #6ACBE3",
"fX c #76CBE2",
"gX c #6FD2E6",
"hX c #73D4E6",
"jX c #928C8D",
"kX c #9E9898",
"lX c #8EA6B6",
"zX c #AEB2B4",
"xX c #89B6CB",
"cX c #85C5D9",
"vX c #95C9DB",
"bX c #96D1DF",
"nX c #AFC8D2",
"mX c #8ACDE2",
"MX c #97CFE2",
"NX c #8AD6E7",
"BX c #97D5E6",
"VX c #9BDBEA",
"CX c #89DDF0",
"ZX c #A5DAE7",
"AX c #B7DBE6",
"SX c #96E2F0",
"DX c #A3E3EE",
"FX c #ACE2EE",
"GX c #B2E7F3",
"HX c #CACDCF",
"JX c #E2CFD4",
"KX c #CAECF2",
"LX c #F5F1F2",
/* pixels */
"J Q f...W Z R / 4.S U ! T ! A P h.x.E 9.c.h.P P E m.m.E P E / 4.^ E m.U.{ H | j.j.Q E l.b.E K N.].XX_.....p.} J g... . .J Q W Q ",
"J Q | Q H H / e.| P W Q ~ / P / l.i.^ 9.9.e.5.5.e.B.M.t.5.e.r.r.r.r.m.U.p.| e.r. . .^ j.b.u.| Q ....K K } r.} Q Q H K / H W Q W ",
"K  ./ / .. .e.| e.g.f.f.g.j.c.l.b.s.c.c.m.n.n.M.B.U.T.U.W.W.W.W.W.W.U.E.E.B.B.B.M.M.M.n.m.p.n.n.l.g.l...g.r.r.r. . . . .| / Q R ",
"Y...K Q H / r.w.H / '.z.W W ^ c.m.t.Q f.5.y.f.e.r.Q.T.t.e.w.e.w.w.r.Y.!.d.| w.b.l.^  .r.U.d.} Q }  .J } Q } r.| J K  .Q Q R W Q ",
"_. X].H.K ..r.} H K z.}.] R ^ M.U.{ [.}.v.S.S.W.j.'.T.^ E w.4.E q.| Y.(.d.| w.b.'.Y.r.| B.E.| Q / z.N.N...Q l.| H H / ..g.W S Q ",
"..].F.K Q g.r.E W | J z./ E r.S.d.4.P.v./ j. .g ..{.T.w.4.4.w.e.i.q.m.!.I.w.t.i.l.U.w.| n.E.p.{ ^ | g.l...H g.j./ H S Q / ~ S H ",
"........f.i.p.l.l.n.n.l.B.M.M.E.E.W.B.B.W.Q.M + 1 _./.!.{.^.{.(.(.(.(.).).!.(.Q.Y.Q.Q.Y.W.E.U.U.Y.n.n.l.l.l.l.p.u.r.f.f.e. . ./ ",
" .Q Q  .r.p.r.e.g.l.l.r.l.l.U.E.d.s.N.Y.Y.N.X.,.7 _.!.U.A.W.A.W.U.Q.} < X.Y.U.Y.U.U.U.U.U.!.T.p.i.l.l.l.r.e.e.r.r.| Q Q Q K R H ",
"Q H Z / g.u.R E J E j.^ J t.W.!.t.x.}.3XXXXX`.,.=.`./.t.a.y.A.Z.M.t.F.@.6 X.d.Q.l.E.b.{ p.Q.!.u.E E w.Q R S H j.p.w.Z / ].F.] Q ",
"W S R g.l.q.S / e.| w.{ 4.s.^.E.w.m.}.3XXX[.'.,.=..X^.a.E.^.(.A.m.d._.,.@.$.t.5X9X[.oXU.u.Q.!.I./ | e.^ ^ / R | l.p.H / [._.OX].",
"Z S / j.u.R S / e.Q ^ 4.w.M.(.T.y.w.x.B.S.g.y o.6 G.{.Z.C.E.M.s.I.E..X,.=.G.p.U.Y.U.p.p.} U.(.T.t.| e. .w.Q R R g.x.w.S ..D _.|.",
"5.e.r.i.s.l.n.n.b.M.W.W.W.!.!./.^.^.(.(...&     + O < ].5X1X1X4X{.{._.%.,.XX4X{.{.{.(.{.(.(.).!.!.W.U.W.B.n.n.l.n.b.p.r.f. . .g.",
"5.f.i.i.u.x.x.b.m.m.M.A.W.(.@X~.Q.^.^.f.X X X X X     : 3X4X1X1X5XcX`.%.-.lX[.).).).{.(.!.!.(./.T.U.M.M.n.n.n.b.l.b.s.u.e. . ./ ",
"A / x.u.R P R c.4.E 6.6.m.^./.a.a.C.t.=   X X X X X X X H.Z.Z.A.lXKXJXzXzXzX Xl.d.b.d.d.s.s.(.(.T.| 4.w.2.E E E E y.b.t.H H R H ",
"U h.b.6.L 7.7.P.c.7.7.t.S.1XR.a.a.Z.x.$       X   : +   D./.~.}.zXjXzXzXkXzXHX`.l.V.s.d.d.s.E.&X~.i.4.m.c.7.4.^ E 4.n.s.E S S S ",
"~ h.a.E L 7.c.S.'.c.8.a.^.$XV.a.a.^.x.o     X X   X X X D.~.V.[.:.o.JXzX5 kXJXzXz.V.d.V.E.s.Z.1X/.i.c.S.N.Q.x.R ! ! j.b.q.S S R ",
"9.x.t.L P 3.9.h.8.8.8.C.{.$XZ.a.C.Z.3.o     X O X X X   #.$X~.oX$.@.LXkX5 jXHXzXF.Z.T.U.Z.d.M.{.&XU.r.c.x.7.^ ^ 4.R e.x.i.! H R ",
"y.s.a.c.c.n.M.C.S.S.^.^.$X#X/.(.(.1Xl.X     X O X X     o.fX6XoXO.*.LXL.6 jXzXzX XoX).{.{.(.(.(.#X/.^.W.W.A.A.m.m.n.b.b.s.p.y.e.",
"a.s.a.a.x.m.C.A.Z.S.^.^.#X=XhXBXNXSX[.X O     O O   X   3 ZXiXOX%.@.LX%.*.-.zXHXzXSXSXSXNXNXNXuX/.%X/.Q.W.W.W.m.m.b.x.b.s.p.w. .",
"a.E A A I I T 2.2.8.8.^.#XdXZXZXGXKX`.  X     X X   4 1 & KXZXjXO.jXLXo.-.-.zXHXnXGXGXGXGXGXZXFXoX@Xd.7.t.6.4.E ! R E 4.x.s.E S ",
"8.m b v.h.9.S.C.I 8.C.2X&XfXvXGXBXDX_.  2 : X O O   &.X.  xXcX XO.kXLX5 -.-.lXnXzXZXNXNXBXGXZXBXiX(.~.7.y.8.6.6.7.! E P j.m.w.P ",
"6.b b 2XOXP.2X2XC.1.C.1X=XmXMXBXmXhXQ.  o.N @ 1 # @ o.K.  `.uX:.O.%.zX5 jX%.lXAXkXcXdXaXgXCXFXvXcX).~.a.6.2.y.m.M.y.h.U 5.c.i.Q ",
"I b b v.P.J.v.c.8.8.^.1X8XmXBXmXqXaX&XX 4 , + # O @ 6 oXu `.6X XL.$ * + 1 O  X0XjXwX<XpXtXgXDXcXBXoX@Xa.y.a.6.7.7.h.j.3.Y c.s.4.",
"L b L L m T T 1.1.C.^.$XaXcXBXcX8X<XpXoX&.: # O   + N uX7X$.} `.G.o O O .   G.oX`.9X>X:XtXyXSXmXNXoX%XV.7.y.7.6.7.4.! P U 7.b.t.",
"5.h.h.c.c.M.A.Z.S.S.$X=XfXcXBXqXeXeXrXqX`.1 1 1 O @ +.uX/.C l._.` o O O o . B Y.OXyX>X>XtXtXCXbXmXqX#X@X^.W.S.A.m.c.b.x.i.x.x.t.",
"i.x.n.m.M.A.S.^.$X$X#X=XfXcXNXqXeXeXrX;Xl.: # N O # 4 ..} ..} U.t o . #.& O V Q.4XtX>X:XtXtXhXVXcXcX/.%X@X^.!.~.E.A.m.m.b.s.i.a.",
"A U U P T 3.3.7.8.S.$XeXiXmXmXqX7X:X<XsXp.2 # N O 2 N X.{ } } } > o O ` & o V ..{ !.rX:X:XtXgXSXcXNX$X%Xd.y.y.8.6.5.3.! ! ! 7.i.",
"j c c 9.F T 1.1.8.1X$XyXcXCXcX8X7X:X,XsX} 2 4 N X 4 N ..} } } J , X : ..& O V ..{ p.tX:X:XtXyXSXcXNX}.+XV.3.2.2.2.S.U P I L P y.",
"v.J.v.v.P.J.3.1.C.1X$XfXwXVXwX8X<X,X,XsXT.3 4 1 X 4 ` ..} } U.J ,   2 ..< o N l.p.} 7X;X:XtXaXCXvXNXoX%X~.8.2.8.7.S.S.I T L L 3.",
"n ] v.k.9.T 1.3.C.1X%XmXwXCXqX8X;X,X,XsXT.N # X + 6 X.q.} } ).{ < X V l.< * N Y.I.{ 7XrX:X7XaXhXvXNXiX(.~.8.3.6.C.3.P.P.5.9.A T ",
"c g 0.F b 1.1.3.S.$X7XcXcXmXqX7X<X,X,XsXI.: +   @ 4 X.q.{ ..tXI.< O ` p.y : V Y.=XI.7X:X:X;XtXhXVXcXcX(.+X8.3.1.8.c.C.P.N.h.Z L ",
"c c F b I I 1.3.P.#X8XwXmXmX8X7X;X,X,XpXp.@ @ X + 3 :.d.{ !.aX@X0 . 3 } y O N {.pX;XrX:X:X:X7XdXSXiXNX{.@Xd.3.3.1.8.h.c.v.T b Z ",
"A n D U T 3.3.c.^.+XdX0XMXwX8X7X-XrX:XpX} @ @ X + 4 Y.{ p.tXpX*X>   3 z.M X z {.rXrX>X-X-X:X7XaXSXcXNXoX@XR.8.3.3.1.T L L A F A ",
"f.g.g.c.n.m.S.Q.$X$XiXwXMXqX7X;X-X:X:XrXI.+ # O O 3 X.{ oXpXrX:Xy   , _.K X N 5XrX-X-X>X-X:X7XaXCXcXmX0X/.@X~.S.A.S.m.c.x.y.e./ ",
"y.r.j.b.m.Z.E.~.Z.4XwXwXmXqX7X=X:X:XrXrXM + @ + O 1 X.I.tXrXrXrXu   : }.W o 3 5XrX>XrX-X-X-X;XtXhXBXwXiX~.+X/.T.Z.Z.m.s.i.r.w.4.",
"v F A U Y ! 6.^.+X8XxXcXcX8X;X=X-X:X:X:XM O @ + @ 2 X.oXpX>XrXrX>   * oX .  1 8XrXrX-X-X-X-X;X7XdXBXwXmXQ.+XV.6.3.~ R I T S c Z ",
"] d j c b A 5.P.Z.qX0XmXxX8X*X*X*X-X-X-XM O + + O 2 :.rXrXrXrXrXy   * qXe.  3 8XrX-X>X-X-X*X;X7X8XSX0XmX{./.d.I L I c Y 9.U F v ",
"]._ H.D Z L 9.Q.~.fX3XMX9X6X&X*X-X*X-X*XM X N l X X t 7XrXrXrX:X<   V uX/.o 3 qX>X:X-X-X*X*X*X=X8XCXxXcXoXR.V.! L b 3.9.c j n D ",
"G.J.J.] g P c.W.(.wX9XvX9X4X&X%X*X*XrXI.  : OX&XE.G 0 '.sX>XrXp.X * ].pX%X< , qX>X-X-X*X-X%X*X*X6XfXcXwX0XE.T.2.A Z ~ ~ j Y D g ",
"F.[ ( G b U v.A.4XxX0XvX5X4X&X%X*X*X;X/...'.pXrXrXpXtXtXpXrXrX*X!.6XtXrX:X&X4X7X-X-X-X-X-X%X*X&X8XfXbX9XcXS.T.q.A b b ~ ] j j ' ",
"K._ e f b Y N.V.qXOXcXvX9X4X4X7X7X7X7XtXaXaXpXtXeXeXaXpXpXpXpXsXsXpXtXpXpXpXpXtXtXtXtX7X7X7X4X7X8XiXBXOXbXW.T.q.L b c f f D D j ",
"[ n g c c ~ B.m.iXlXMXnXxXiXwXqXuXuXfXuXiXdXuXhXhXdXhXgXhXhXhXhXhXhXhXhXhXdXuXgXdXdXuXuXuXuXuXuXiXmXAXxXmX[.V.d.P b c Y Y D ' G ",
"e e f f v 9.b.W.vXOXxXAXZXZXMXAXBXZXZXDXZXDXDXDXFXDXVXFXDXDXDXDXDXDXDXDXDXFXDXDXDXDXZXZXZXZXZXZXDXZXnX0XMXOXd.d.P j c f D G j p ",
"h h j D G g.s.d.xXMXxXvXMXvXMXMXbXMXBXBXVXBXVXVXVXVXVXBXVXDXVXVXDXVXVXDXVXVXBXVXBXBXVXbXMXMXvXMXvXvXvXMXMX].d.d.^ U v v f d d f ",
"G G Y ~ f.y.i.u.s.Q.{.{.{.{.4X1X1X5X5X4X5X6X6X8X8X8X8X8X8X8X8XeX8XtX8X8X7X8X8X6X6X6X7X4X4X4X1X4XoX{.{.{.W.i.d.a.i.4.~ W H G G D ",
"K K K ^ 4.w.t.s.s.p.s.d.V.T.Z.E.~.~.@X/.#X@X@X@X+X%X%X%X%X%X=X%X%X%X%X%X%X%X+X@X@X/.R././.~.R.~.T.V.d.d.d.s.u.t.t.q.Q W H S S Z ",
"d f j D / ^ w.4.U Y ~ 5.5.5.y.a.c.a.c.C.Z.$X@X@X~.C.Z.Z.C.^.C.S.E.Z.Z.Z.Z.$X#X#X/.V.a.c.a.8.y.7.7.3.3.! ! 3.e.q.4.R Z j f f f f ",
"e 9 e d G / E v i g b b b b b L L 1.1.1.h.^.@XV.2.8.8.8.8.8.8.8.8.6.8.8.8.C.$X+XI.2.I 1.1.I I L L c c c g c Y / E Z e e e e e 9 ",
"9 9 e f ( Q S d i f g c c b b b I I I 1.9.S.~.{.}.9.2.2.3.8.8.1.2.2.I C.c.h.^.~.C.3.I I b 3.I m A c c c f g v ] R Z i e e d l d ",
"9 9 w u G S M i i g g f g c c b b b b T 9.S.E.0X[ P.OXP.2XlXP.xXP.lXP.2X X.X}.E.V.T L I b 3.b c F b g a g g d Y U Z y 9 e l x ( ",
"9 9 r k D D h w e i g h n m Y b b b b m 9.v.d.oXP.lXxXjX XlXlXxXL..XlXlXlXlXXXC.8.3.m I b T L g v m a g a a d D G Z p 9 q x x x ",
"9 9 r k D j e ; 9 e e i h l n v m n a b 9.c.a.! [ ' 0.9.K.lXD.' ' 0.' 0.m 9.k.s.6.b i c g m n m v v e e e q q k D j e 0 9 l x x ",
"; 9 0 k f l k k l k l l l m G m G ' D G ] N.n.9.m ' 0.0.D.' 0.9.9.' 0.' F Y v.N.j.Y G D m m G ( ( ( ( k h k k l l f e 9 ; s x > ",
"; > r t u [ x ) ) ) ( ) ( ) ) ) _ _ ) _ _ [ ] ' _ _ _ [ _ _ [ ' ' ' ' ' ( _ [ ] ] ( _ ) ( ( ( ) ) ( ) ) B ) ( x t g p 0 8 0 x 0 ",
"; ; w r p ) ; 0 0 9 8 9 > 8 0 8 9 8 8 8 k 9 - ; 8 s t 8 8 8 8 8 w s 8 8 8 8 ; 8 ; ; ; 9 8 0 8 0 8 8 9 8 9 9 9 > = u p 0 8 8 x k ",
"; ; 0 r r ) r k r p p p p k p p d p p l  X) #.) ) K.#.s m x x x s D.s ) x _ #.x #.) G.k p k p d p p s d p p p r = t p w w 8 8 s ",
"; 9 0 0 r _ k h h h k h h d h h h h r K. XG.].|.G.G.|.|.G [  X` m D.l G.$.|._ G.K.K.|.l h l h h d d h h h h h d = t p i w 8 w w ",
"0 0 0 q 0 _ j F D D D D D F D F A n G k.G F.[ k.J.K.X._.h G |.B ' |.J.J.|.H.J.D.].F.].( F U F D F D F D F F D j - t p p i w w a ",
"0 0 0 q r [ F j y < y , y < y < > < y > < > > < > > u 3 > M M < 8 < < < , < < < < < y y u u u u u u u u u u G U ; t p p a a a p ",
"q 9 0 q 0 [ F 3 O.7 O.*.*.=.=.=.>.=.>.>.<.<.<.<.<.<.<.<.<.<.<.>.>.>.>.:.:.:.;.:.:.;.                        V ~ > 0 p i w a w a ",
"0 q q q i [ Y k o.O.O.O.O.O.O.@.@.@.@.%.%.&.&.&.&.&.&.&.%.&.&.&.&.&.+.+.+.+.C C +.C O * * : * * * * & * & * _ ] ; t a i a a w a ",
"q q r q w w ; - $ - % - % % % - - - % % % % % % % % % % % % % % $ % & - % % % = % - = > - - ; - - > > - - - - ; - w w a a a a a ",
"e q q q w 8 - - $ - $ $ $ $ % % $ $ $ - % = = $ $ $ $ $ $ $ $ $ $ $ $ $ $ % % = - & % % % % $ % % % = % - - ; - 8 w w a i a a a ",
"r q q q w 8 8 8 8 s w 8 8 8 ; 8 - - - - 0 > ; - - - - > - % - - - - - - - = = > 0 0 - - 8 8 0 w w t s s s w 8 p 8 a i i i a a i "
};
