/* XPM */
static char *ab4a20f7415e4e34a43e1841fa1480c2[] = {
/* columns rows colors chars-per-pixel */
"64 64 256 2 ",
"   c #070707",
".  c #0B0102",
"X  c #130303",
"o  c #1B0402",
"O  c #170908",
"+  c #0A120D",
"@  c #17130D",
"#  c #050916",
"$  c #191817",
"%  c #270704",
"&  c #370504",
"*  c #27150A",
"=  c #36150A",
"-  c #281914",
";  c #371717",
":  c #2F271A",
">  c #0C1629",
",  c #051638",
"<  c #2F1427",
"1  c #132339",
"2  c #292827",
"3  c #382B26",
"4  c #303031",
"5  c #373735",
"6  c #4A0705",
"7  c #580505",
"8  c #481807",
"9  c #551907",
"0  c #521814",
"q  c #670706",
"w  c #6B0404",
"e  c #720503",
"r  c #780808",
"t  c #6F130F",
"y  c #7A1416",
"u  c #4C210B",
"i  c #59280C",
"p  c #482615",
"a  c #582815",
"s  c #453D1D",
"d  c #59351B",
"f  c #6C2911",
"g  c #762819",
"h  c #67361A",
"j  c #773A1A",
"k  c #50162D",
"l  c #4B3229",
"z  c #583624",
"x  c #483D36",
"c  c #732E25",
"v  c #683926",
"b  c #743928",
"n  c #3C4232",
"m  c #4C4833",
"M  c #6B432B",
"N  c #784924",
"B  c #76462A",
"V  c #704C36",
"C  c #794A33",
"Z  c #061A47",
"A  c #0F1C52",
"S  c #1B1D5C",
"D  c #082449",
"F  c #112952",
"G  c #152857",
"H  c #2F3650",
"J  c #122B6A",
"K  c #18356A",
"L  c #1A3A77",
"P  c #28346E",
"I  c #4B3045",
"U  c #2D445D",
"Y  c #2A4B79",
"T  c #464749",
"R  c #504E53",
"E  c #6D554D",
"W  c #53586C",
"Q  c #6F5F62",
"!  c #5A6570",
"~  c #6F6F6F",
"^  c #88080A",
"/  c #86130B",
"(  c #930E10",
")  c #891714",
"_  c #971618",
"`  c #B60C19",
"'  c #AD1211",
"]  c #A71619",
"[  c #AB131B",
"{  c #B3131B",
"}  c #BB151B",
"|  c #B81819",
" . c #8B3215",
".. c #B32B15",
"X. c #941A23",
"o. c #AA1823",
"O. c #B91923",
"+. c #893125",
"@. c #B12325",
"#. c #C8160F",
"$. c #C4151B",
"%. c #CC151C",
"&. c #C31A1B",
"*. c #C81919",
"=. c #D51A1D",
"-. c #E61E1C",
";. c #D12B1C",
":. c #EB271D",
">. c #F42B1D",
",. c #E9311A",
"<. c #F8341D",
"1. c #FB3C1C",
"2. c #C90E22",
"3. c #C61723",
"4. c #D61A22",
"5. c #ED0C29",
"6. c #E31923",
"7. c #D62E29",
"8. c #EA2623",
"9. c #F42C22",
"0. c #E43629",
"q. c #F83722",
"w. c #8C4C1B",
"e. c #A84418",
"r. c #864824",
"t. c #924F2E",
"y. c #975629",
"u. c #864935",
"i. c #895537",
"p. c #975A37",
"a. c #AB552A",
"s. c #83603F",
"d. c #996337",
"f. c #B5692F",
"g. c #A66639",
"h. c #B86737",
"j. c #FC550E",
"k. c #FD441C",
"l. c #FA4A18",
"z. c #FD4C1B",
"x. c #FB571A",
"c. c #FD671B",
"v. c #FE731D",
"b. c #CE522F",
"n. c #F55426",
"m. c #CB6E36",
"M. c #F86525",
"N. c #FC7727",
"B. c #EE7032",
"V. c #895943",
"C. c #955B46",
"Z. c #AB5B47",
"A. c #976548",
"S. c #8F6A52",
"D. c #A56947",
"F. c #B77847",
"G. c #A87556",
"H. c #B07150",
"J. c #8E766E",
"K. c #AA7B65",
"L. c #CE5541",
"P. c #CD7447",
"I. c #E26050",
"U. c #BD813C",
"Y. c #DC953C",
"T. c #F88737",
"R. c #FBDB38",
"E. c #AC8156",
"W. c #B98659",
"Q. c #988573",
"!. c #B78766",
"~. c #A0926F",
"^. c #B28D72",
"/. c #CE8A4D",
"(. c #C98758",
"). c #D28956",
"_. c #D79659",
"`. c #EA914E",
"'. c #DCA253",
"]. c #E8AD58",
"[. c #C58965",
"{. c #C98C69",
"}. c #CB9568",
"|. c #D89866",
" X c #C59875",
".X c #D89B74",
"XX c #E79071",
"oX c #DAA56A",
"OX c #D9A577",
"+X c #D4AB7A",
"@X c #E4A76A",
"#X c #E6AB76",
"$X c #E8B47A",
"%X c #F3B279",
"&X c #F9D554",
"*X c #FEE248",
"=X c #FAE559",
"-X c #F9D76F",
";X c #FCE867",
":X c #FDE674",
">X c #F7F471",
",X c #14378D",
"<X c #233895",
"1X c #16488D",
"2X c #2E558C",
"3X c #366698",
"4X c #2856A3",
"5X c #4F648F",
"6X c #556B8D",
"7X c #6B748A",
"8X c #496EA7",
"9X c #897D86",
"0X c #76858E",
"qX c #6792B3",
"wX c #7292B1",
"eX c #75A2C5",
"rX c #898B94",
"tX c #AD9383",
"yX c #B8A58C",
"uX c #9095A8",
"iX c #98A4B8",
"pX c #A8ACB7",
"aX c #C89B84",
"sX c #CAAA8F",
"dX c #D6A989",
"fX c #DAB38A",
"gX c #D9B795",
"hX c #E8B788",
"jX c #F3B68B",
"kX c #E7BA94",
"lX c #CFB6A8",
"zX c #F1BCA2",
"xX c #EBC389",
"cX c #F4C48C",
"vX c #EAC497",
"bX c #F5C998",
"nX c #F0D891",
"mX c #F7D399",
"MX c #DFD3A2",
"NX c #EACAA6",
"BX c #F7CBA7",
"VX c #EAD4AF",
"CX c #F9D7A9",
"ZX c #FADAB6",
"AX c #F4E4AD",
"SX c #FBE5B8",
"DX c #96B1CD",
"FX c #A5B8D6",
"GX c #A8CDE1",
"HX c #D1D3DC",
"JX c #FCE9C6",
"KX c #FBEDD1",
"LX c #FCF7D9",
"PX c #D0F3F9",
"IX c #FBF7EA",
"UX c #E9FFFE",
/* pixels */
"3.%.%.=.*.| ..XXnXnX>X-X>X-X..4.4.%.=.=.=.3.%.&.3.3.} } { ( ^ r r r r w +.e.w.P.Z. .g.+.P.m.m.b.b.B.x.x.z.k.1.<.<.:.:.:.-.-.=.=.",
"&.3.%.%.*.' b.zXnXnX>X>X>X]...4.4.=.=.%.4.%.$.&.| } | O.` ( ^ e ^ r r w y y g h.p ; p 8 z 0 8 9 t ..b.x.z.z.l.1.<.>.:.:.-.=.=.=.",
"} 3.$.%.$.| ' b.m.a.&X>X>X'.| 6.=.%.=.%.%.%.$.} } } { O.] ^ ^ r r r q q t y f a.< O O O X . o * 6 +.b.l.x.l.z.q.q.>.8.:.:.=.=.=.",
"O.3.2.2.$.} | { #.#.m.;X:XT.#.6.4.%.%.%.$.$.} } { { ` [ ' ^ r r r r r q t g +.g.l   @ O X X % O l C.m.M.x.x.z.k.q.9.>.:.-.-.=.=.",
"O.O.3.2.2.3.O.} ;.#.b.;X:Xm.#.4.4.%.%.%.$.$.} } { { [ [ ( ^ r r e w w 7 t +.t.p.v O o O o X o O % =  .n.j.j.l.k.q.q.>.>.:.=.=.=.",
"_ o.O.2.2.3.2.` } ;.;.`.-Xb.| 4.2.=.4.$.$.} } { O.{ [ ] ^ r r r e w w 7 f t.t.c C * o % o . X X . = a.B.c.j.j.l.k.q.>.8.:.6.:.=.",
"Z._ [ O.3.2.2.O.$.$.#...B.7.*.4.%.=.%.$.| { { { { ` ] ( ( ^ r e e q q 7 g u.g 9 v p o O O O X X . %  .m.M.c.j.l.k.1.>.,.8.-.=.4.",
"ZXH.) o.O.O.3.2.$.$.#.=.#.;.4.5.=.%.$.| ` | { ` [ [ ] ( ^ r r w w w q 7 c p.8 8 a a % * @   O   O X a h.m.B.x.z.1.1.q.9.,.8.-.4.",
"JXZXZ.) ] O.} #.} { 3.$.#.;.4.5.4.%.3.&.{ { { { ` [ ( ( ^ r r e e t q 6 t b 0 0 c b 8 * % O O O O X 8 t.m.b.M.l.k.q.q.9.9.8.4.4.",
"JXKXNXZ.) o.| | | [ o.{ } { 4.5.4.%.%.&.} } { [ [ [ [ ( ^ r r e e q q 6 7 a z V.H.Z.b 8 % % o o . X o a a.a.M.l.z.k.1.9.9.8.8.6.",
"LXKXLXzXi.) ' | | { | ' ' ' } %.=.4.4.$.&.} { { ` [ ] ^ r r e e w w 7 6 0 u.A.C.K.G.i.v = o X X X . O x g b.M.x.z.k.q.q.9.:.=.6.",
"LXLXLXLX^.j ) ] O.{ { { ` { ] [ } %.3.$.&.O.} { o.[ ( ^ r e w w w w 7 6 c i.C.C.Z.C.C a = = o X X . X p g m.M.x.z.k.q.1.>.:.6.8.",
"IXLXLXIXVXC.X. .o.o.` ` ` ` ] o.` ` 3.3.3.| { { o._ ( ^ r e w w w 7 7 6 b C.i.p.C.C.C d u ; % X   X X & w.B.x.x.z.k.k.<.9.>.6.8.",
"LXLXLXLXLXaX+.+.c X.o.O.` ` [ ] [ [ [ O.&.| } } { [ ^ ^ r w w q q 7 6 t C.S.A.u.u.i.C B p p ; X     o 6 m.B.c.x.n.z.k.<.<.8.:.6.",
"LXLXLXLXLXZXG.V.k 6 y X.o.` ` ` [ [ { ` { | O.O.[ [ ^ ^ r w w q q 0 6 0 C.K.K.c 9 a b h a v l o   O % j B.N.M.x.z.z.k.<.<.8.:.6.",
"LXLXLXLXKXZXkX!.C % & k y X.[ [ ] ] [ [ ` { { ` [ ( ^ ^ r r w w 7 7 6 z z C G.c 8 9 a a i M z % o o & h.N.c.c.M.n.z.k.1.<.:.:.:.",
"KXLXKXJXJXJXZXkX!.u.% = a y _ _ _ _ ] [ [ [ ( [ ( ^ ( r r e w w 7 6 b ^.G.u M B 8 8 i i u C C.a % % i m.N.v.c.x.x.x.k.1.<.>.:.-.",
"SXSXJXJXJXJXJXZXkX!.B a v 6 7 t ) _ _ _ X._ _ _ _ ) ^ y r t w q 6 0 K.dXsXS.8 d i u d h i i. XV.i 8 t.`.T.v.c.c.n.x.z.k.1.,.:.-.",
"AXJXSXJXSXSXCXCXCXhX!.i.C c q t q ^ e w r y y y t t q 7 7 t q q 6 b dXdXfXsXM a a 8 i h f i.dXK.t.i y.`.T.N.c.c.M.x.z.k.<.<.>.:.",
"AXSXSXSXSXCXCXVXAXAXvXdXD.K.G.Z.K.Z.+.+.+.y +.g y +.u.u.c 7 6 6 6 K.dXgXgXvXK.i a 8 u h i i.dX{.D.f w.P.T.v.c.c.x.x.z.k.1.>.:.:.",
"CXCXCXvXfX^.W.^.+XmXSXZXZXZXZXZXZXzX[.{.K.[.P.}.#X#XjXbXvXaXD.f c aXaXdXsXVXgXM p = 8 i i p.#XP.g.j j m.`.T.v.c.M.x.n.q.1.9.>.:.",
"BXbXcX+XF.i.u i d.fXZXSXKXKXLXLXSXvX.X}.P.jX%X#X%X%X#XcXmXmXBXkXJ.aXlXVXJXgXBXA.p = = 8 a p.(.P.p.g y./.T.T.v.M.M.x.z.k.1.<.,.,.",
"xXcX$X}.F.d.h h W.fXZXKXKXLXLXKXZX#X.X).m.%XjX@XU.g.f.(.$XcXvXZXK.x l E yXVXvXE.8 * % 8 a p.F.g.w.r.g.h.T.T.N.N.c.x.x.x.1.1.>.:.",
"+X$X$XoXW.F.j d.hXCXJXLXLXIXLXKXbX.XoXP.).jXOXy.N d.g.g./.@XvXZXlXl $ $ : yXNXkXl % % 8 h i.G.B w.a.p.a.Y.`.T.N.M.c.x.l.k.1.>.>.",
"$X$X$XoX(.F.+.A.mXSXLXLXIXIXLXZXvX$X@Xh.`.jXK.i.s.d b F./._.hXVXrX4 ! rX2 J.fXmXS.% & 8 h r.D.t.d.g.g.y.Y.T.T.N.v.c.x.j.l.k.9.:.",
"'.oX$X@X|.}.r.i.mXSXLXIXIXLXJXCXbXcX#Xf.|.OXp.l s   p j (._.xXgX5 $ 4 > + rXlXMXtXu 8 f B r.r.r.H.H.+X(.T.T.T.v.c.x.x.x.l.k.q.9.",
"_.oX@X$XoXOXd.j fXSXKXKXLXKXVXbXjXjX#X/.OXOXz       ~ G.f.].cX~.2 # # > > 7XVXZXzXV 8 r.g.r.r.p.!. XNX#X`.T.T.v.M.M.x.z.l.1.>.9.",
"(.|.#XoX$X$X[.h ^.SXJXJXJXZXhXhX@X#X%X@XhX+X!.l   + Q gX/.@XhXE 4 > # # $ T ~ lXZXE.i p.p.y.H.dXfXNXZXdX_.].`.T.N.M.n.z.k.1.q.,.",
"h.|.OX#XcXcXjXD.V vXSXSXAXAX|._.`.|.@X%XbXbXvX^.p ; tXfXU.@XdXR T H > # 1 H 4 Q lX{.b C.D.K.aXlXZXZXKXsXN y.h./.Y.B.n.l.k.1.1.>.",
") H.|.OXjXmXmXhXv S.MXAXnXAXOXf.`.`._.@XcXCXxXhX}.A. XE.U.oX^.! R T n H n 4 H 4 Q K.S.S. XgXNXVXNXVXLXrX: ; : V g.m.m.n.l.1.<.>.",
"t y H.OX$XbXcXbX!.i.fXxXnXcXmX_.e.m.P./.jXCXAXmXOXW.D.U./.oX~.! ! W R T 4 4 H H 4 R K.^.aXsXtXQ.yXyXKXJ.s x 3 m z r.f.B.n.1.<.<.",
"t 0 g }.OX$XxXBXhXd.s.}.xXxX%X-Xm.a.m.f.$XmXSXSXNX+XE.W./.@X^.~ ! ! R R T H T H H 2 S.aXsXR 4 R ~ tXJXx n 4 : n n n v P.n.k.q.>.",
"6 7 t +..X+XvXnXCXW.d.!.E.oX#XoX`.@X/./.$XcXCXCXSXSXbX|.|.#XgXQ.~ ~ ! ! W W R R 5 l G.K.m $ $ 4 $ 3 E $ 5 5 @ : @ : : j m.n.9.9.",
"t q q e H.xXMXAXSXfXW.hXg.y.H.A.(.#X@XOX%XoXxXmXAXSXZXmX#XhXkXyXE ! 7X! ! ! ! R l ^.kX^.* > 1 4 $ + + $ 2 2 @ @ . + * p y.m.0.>.",
"_ ) q 6 f {.BXSXSXSXW.{.}.p.j d.H.W.}.-XoX(.-XNXmXSXSXZXbXjXjX X$ T 0X~ 7X0X0Xm A. X+XK.T H H T n T n 4 $   $ $   + + 5 l Z.n.:.",
"' ' ^ 7 & C kXZXSXSXkXD.D.[.G.S.i.G.W.W.d.W.oXcXmXCXZXCXbXjXjX!.  n 0X0X0X~ Q V.}.|.xXE T 7X! W U W T 2 2 $ 2 @   + $ 2 3 +.b.:.",
"| ] X.y 0 6 K.BXJXSXSX+Xj B G.B u a h i u y.(.oXxXxXMXCXbXjXhX[.% 3 ~ ~ ! ~ ~  X|._.cXS.R 6X! W R R 5 2 2 $ - +   + $ 2 3 b b.0.",
"@.@.o.X.X.7 c dXSXJXSXnXW.N i u i i i h j j F.}.@XxXxXbXjX%X#X}.d z pXlXMXMXVX~.h.).#X^.E W W R T n 4 5 5 2 5 @ + + $ $ 3 a a.7.",
"q ^ ) X._ ) 6 h dXVXCXvX$XW.d.p.D.t.b B r.r.p._.oX$XxX$X#X@X#X^.C.V yXJXJXJXCXhXy.f._.!.R R R T n 3 m 2 2 3 5 3 2 2 n 4 3 8 L.0.",
"6 7 7 w y y y 6 b +XcXxX$X|.[.H.D.p.r.r.r.w.y./.'.@X$X@X]._.OXD.G.dXV.dXkXbXbXjXg.p.(.E.R T T T 5 R Q.: * : 3 $ : : m m m d P.8.",
"y y t q 7 7 r t 6 b K.OX|._.(./.h.y.r.y.w.w.y.F._.oXoX|._.'.W.d K.BX[.i.{.dXhX(.d.{.jXbXQ.3 m m E tXQ 3 3 - : O + * l n m V m.k.",
"] O...] / w q 7 6 & 9 t.F.)././.a.w.y.y.y.y.y.F.}._._.).).|.V X E NXBXu.C V.A.B g.#XjXBX}.y.D.!. X^.l $ 4 m 3 : * - ; 3 : N b.,.",
"@.3.&.@.@.X.y q 7 6 & & a u.D.H.g.y.y.y.a.y.a.F.(././.).[.^.3 . 5 kXBX XB V.C j g.OXhX.Xd.g.(.{.}.A.; $ $ I s n s 3 l x s g.n.:.",
"&.4.4.&.@.@.o._ r 7 & % % % % 0 d M V y.y.a.a.f.m.m.m.W.!.Q A # . tXBXkXd.b C a i.K.G.i.p.d.D.E.F.j = - * @ : R n $ 4 3 d Z.0.9.",
"| 4.=.*.3.O.@.O.] / 7 & & % % o o % % d y.f.e.f.h.h.h.!.aXH ,XZ # ; aXkX!.C E u.A.M v M r.w.p.H.D.G.V = * X O 2 m 3 4 @ a b.9.8.",
"] } %.*.3.O.&.*.$..._ g q 6 & < % X X o h d.d.D.Z.H.G.Q.HX2X,X,XZ # : S.V V S.C.; = ; p h r.N j B !.dXQ.; X     $ 5 2 + h I.9.:.",
"( } &.*.&.&.&.*.#.$.| ' X.t 6 & & % O O % p E K.J.aXpXT HXDX,X1XL Z   X O @ 3 ; . O - z d.|.H.= v V S.lXK.= * O - $ 4 + b 0.9.8.",
"_ ] &.&.&.| &.%.2.} | ` [ ^ q 6 6 & & % % % k W T uXUX5XqXPX1X4X,XA , # #   # # # # 2 S. XOXcX!.l * @ J.lXV.& p - $ I 5 u.I.9.8.",
"( ] | &.| &.&.;.O.[ ( ( ' ( r e 7 6 6 6 & < < P P 2XUXDXY PXeX,X4XJ Z Z # > > > , > 3 J.^.OXjXBXsXE O lXVXsXS.a ; - s n V L.9.8.",
"r ] O.&.&.&.&.&...XXP.y./ ^ _ ) w q 7 7 7 & < H L ,XDXUXY uXPX3X1X1XA A Z Z , , , 1 1 E K..XOXvXNXsXS.HXVXgXBX.Xs.z : : N a.0.8.",
"r ] &.&.3.&.#.' m.nX:X-XoXm...( ( e w q q k k H L <X5XUXDX2XPXeX1X1XA A A Z Z , Z F 1 T K.{.OXkXvXNXMXVX+XMXxXoXfXaXm : v a.0.6.",
"( | &.&.&.#.%.| Y.>X;X>X>X:Xf.^ _ ^ r q 7 7 k I L <XK pXUX8XeXPX3X1X1XJ A A D Z D F G 4 K.K.}.hXbXNXVXMXMXAX$X}.mXgX XQ.V.Z.8.8.",
"] | #.#.| | ' e.;X>X>X>X=X;XU./ _ ( r 7 6 7 y k ,X<XL 5XPXFXY PXGX3X4X1XF D D D D D U 1 Q K.{.hXhXhXhXhXkXSXxXoXmXMXVXNXNXXX4.>.",
"| ..&.&.&.&.' /.:X=X=X=X=X=X/./ X.( r 7 6 q q I P L L ,XeXUXqXqXPXGX8X4X3XY D D D D U 1 I tX^..XhXE.p.!.dXCX+XoXCXAXVXCXZXzX7.-.",
"&.&.;.%.3.| ..].;X=X;X;X=X*X]./ X.^ r 6 6 q q k P P ,X<X<XGXPX8XeXPXPXeX2X4X3XK , D P H H J.{.dX XM 8 A.[.NXvXd.|.hXBXZXZXBX7.=.",
"&.| ..2.4.' m.-X;X=X;X=X*X*X]. .^ ^ t 6 6 q w k S J P ,XL 3XPXGX3XqXGXUXGXY 2X2XU K L Y S W tXK.G.z 6 i.!.sXSX^.+.D.NXZXSXBXb.=.",
"&.&.{ &.| ..].>X;X=X;X;X&X*X&X .r ^ q 6 6 w w k S J J L 1X,XeXPXGX3X3XeXUXpXK L 5X5X8X2XP H 9XJ.l v v f A.sXVXZXK.gXMXNXJXzX7.7.",
"#.| 3.3.' b.-X;X;X=X=X;X=XR.&Xa.r / 7 & 7 w w k A J J L L 1X2XGXUXPXqXY qXPXDXY P <X4X8X2XJ W 9X3 a E C v S.gXNXJXSXVXVXCXXX7.:.",
"&.| 3.| ..'.;X;X;X=X&X=X*XR.&Xf.^ / 7 & 7 e e k > S J J J L L 1XeXPXUXDXU Y GXHXwX4XJ 4X8X8X7X7X~ % E G.v M S.aXZXSXAXZXBXXX7.4.",
"..&.*.' a.;X;X;X;X=X=X-X&XR.*Xm.^ / 7 & 7 e q < # Z G J K F K ,X1XqXHXHXiXK F 0XFXGXwX5XW 5XuX0XrXI E ^.^.E.V.dXVXVXVXZXzXI.0.=.",
"| 4.2.] ].;X=X;X=X=X&X-X=XR.*XU.^ / 6 & 7 e t < Z , Z A S J J ,X1XL U uXpXuXW 1 S W pXHXpX7X7XiXrX9XI K.dXkXfXdXzXBXBXBXXXL.7.4.",
"{ 3.} f.-X;X;X=X;X].w.&X=XR.R.'.^ / 9 & 7 r y k Z Z , , A J J J F J D , W uXpXuX6XH < 7XHXHXHXHXuXrXQ v ~.vXgXH..XjXjXI.L.7.0.2.",
"3.2. .].:X-X-X=X>X_.j &X*XR.R.Y./ ) 6 & 6 r y k A S A A Z A G F F D D > > H 7XiXpXiX9XS P 7XW rXrXuXW X E K.h j ..I.B.7.;.7.4.4.",
"} $.m.>X;X:X;X=X;Xf. .&X*XR.R.Y.) y 6 % 6 r ^ k S J S S A Z Z F F D 1 1 , , > H W ~ uXiX7X7XR ~ 0X8X7XX * % =  .b.b.;.:.8.4.7.3."
};
