/* XPM */
static char *_94d33a84aca4fbee32f3e22952ec8f7[] = {
/* columns rows colors chars-per-pixel */
"64 64 254 2 ",
"   c #1A160B",
".  c #1C190D",
"X  c #161308",
"o  c #1E1C11",
"O  c #191610",
"+  c #0F0C06",
"@  c #221B0D",
"#  c #21160C",
"$  c #221D13",
"%  c #261E19",
"&  c #361D1B",
"*  c #242115",
"=  c #2B231A",
"-  c #2A2318",
";  c #34261B",
":  c #353015",
">  c #2E2B23",
",  c #372B25",
"<  c #36312A",
"1  c #3B3429",
"2  c #3B3633",
"3  c #44331A",
"4  c #481D25",
"5  c #452A27",
"6  c #45372A",
"7  c #59352B",
"8  c #4B3333",
"9  c #433C34",
"0  c #4C3C35",
"q  c #433E39",
"w  c #4B3C3B",
"e  c #483537",
"r  c #5B3B34",
"t  c #533C3C",
"y  c #5B3C3A",
"u  c #543835",
"i  c #4F2D2C",
"p  c #633D34",
"a  c #633E3B",
"s  c #6A3C35",
"d  c #773B32",
"f  c #45423B",
"g  c #4C443B",
"h  c #4C4638",
"j  c #5E4235",
"k  c #55433C",
"l  c #5C433B",
"z  c #544B3B",
"x  c #5B4D3E",
"c  c #524335",
"v  c #58513D",
"b  c #644236",
"n  c #64433B",
"m  c #6B443C",
"M  c #69473A",
"N  c #734A3D",
"B  c #77473B",
"V  c #695B3E",
"C  c #76523E",
"Z  c #593F43",
"A  c #4A3A40",
"S  c #6F3D47",
"D  c #4B4542",
"F  c #4E4A44",
"G  c #534343",
"H  c #5A4544",
"J  c #534B43",
"K  c #5C4B44",
"L  c #5D4B4A",
"P  c #544C49",
"I  c #5B5344",
"U  c #5C534A",
"Y  c #595549",
"T  c #5C5553",
"R  c #5D5955",
"E  c #4F4A55",
"W  c #6D4543",
"Q  c #624C44",
"!  c #6B4B43",
"~  c #634C4B",
"^  c #6B4E4B",
"/  c #664546",
"(  c #734B44",
")  c #7B4B43",
"_  c #744C4A",
"`  c #774846",
"'  c #635344",
"]  c #61554D",
"[  c #645B4C",
"{  c #6B5D4C",
"}  c #685748",
"|  c #73544A",
" . c #7C524B",
".. c #775749",
"X. c #694E52",
"o. c #774D54",
"O. c #6A5354",
"+. c #635C53",
"@. c #6A5D53",
"#. c #625D5A",
"$. c #685757",
"%. c #735453",
"&. c #735C53",
"*. c #7B5C54",
"=. c #745A5A",
"-. c #7B5C5C",
";. c #7B5458",
":. c #6A614D",
">. c #6A6144",
",. c #74634D",
"<. c #79694C",
"1. c #6D6253",
"2. c #65625B",
"3. c #6C645B",
"4. c #666355",
"5. c #736454",
"6. c #7A6655",
"7. c #756955",
"8. c #7C6C55",
"9. c #74655B",
"0. c #7B645B",
"q. c #75695B",
"w. c #7B6B5C",
"e. c #7E705B",
"r. c #785C62",
"t. c #6C6764",
"y. c #726B63",
"u. c #7D6B62",
"i. c #766869",
"p. c #7D7163",
"a. c #797468",
"s. c #756D73",
"d. c #7C7974",
"f. c #6A6875",
"g. c #5B5D6F",
"h. c #844B3A",
"j. c #834D46",
"k. c #845A4C",
"l. c #84554B",
"z. c #94594B",
"x. c #835652",
"c. c #845C54",
"v. c #835C5B",
"b. c #8B5D5B",
"n. c #895954",
"m. c #955D55",
"M. c #854653",
"N. c #8D6354",
"B. c #85635B",
"V. c #8D625C",
"C. c #856A58",
"Z. c #936353",
"A. c #93635C",
"S. c #946B5C",
"D. c #9A6858",
"F. c #84745D",
"G. c #8C7A5C",
"H. c #867356",
"J. c #936854",
"K. c #A56959",
"L. c #A6725C",
"P. c #BB765F",
"I. c #855C64",
"U. c #935E62",
"Y. c #8B6463",
"T. c #876767",
"R. c #936563",
"E. c #946B64",
"W. c #9A6C64",
"Q. c #936C6B",
"!. c #9B6C6A",
"~. c #966566",
"^. c #837363",
"/. c #8B7B62",
"(. c #877767",
"). c #9B736B",
"_. c #987567",
"`. c #946D73",
"'. c #986C71",
"]. c #867878",
"[. c #9B7676",
"{. c #8E6C73",
"}. c #A56B67",
"|. c #A27364",
" X c #A4746B",
".X c #AA7868",
"XX c #B77768",
"oX c #A47572",
"OX c #A47A73",
"+X c #AA7D74",
"@X c #A57C7A",
"#X c #AA7977",
"$X c #B37B74",
"%X c #B77B76",
"&X c #AF6F70",
"*X c #7B867B",
"=X c #978266",
"-X c #888478",
";X c #9B8B79",
":X c #B9836E",
">X c #AC817C",
",X c #AB8075",
"<X c #B3847D",
"1X c #B88678",
"2X c #A9806E",
"3X c #C48879",
"4X c #CF8C78",
"5X c #7B7A86",
"6X c #9E7980",
"7X c #A77D82",
"8X c #868587",
"9X c #97938B",
"0X c #9A9798",
"qX c #90898D",
"wX c #AB8584",
"eX c #B38482",
"rX c #BC8C84",
"tX c #B88985",
"yX c #BC9189",
"uX c #A39B9A",
"iX c #A8968E",
"pX c #AAA5A7",
"aX c #B4A6A7",
"sX c #BAB8B7",
"dX c #B5B0AF",
"fX c #A7A0A0",
"gX c #C58C85",
"hX c #C3928A",
"jX c #D79689",
"kX c #CB9A94",
"lX c #D59996",
"zX c #D08B8D",
"xX c #E19983",
"cX c #D7A29E",
"vX c #C7B9B9",
"bX c #D2B7B5",
"nX c #E8A18A",
"mX c #C7C2BF",
"MX c #BBBACC",
"NX c #C8BFC2",
"BX c #C9C7C8",
"VX c #D7CAC8",
"CX c #D9D7D7",
"ZX c #CFD0D2",
"AX c #E7D8D8",
"SX c #E7E7E7",
"DX c #EBEDF1",
"FX c #F6F6F6",
"GX c #F8F7F7",
"HX c #F7F6F8",
"JX c #FBFBFB",
"KX c #F8F8F8",
"LX c #F0F0F0",
"PX c #E0DDE0",
/* pixels */
"JXJXJXJXJXJXJXJXJXJXJXJXJXJXJXJXJXJXJXJXJXJXJXJXBX].f - f 9X4.. o o o . h *X3.t.0XCXJXJXJXJXJXJXJXJXJXJXJXJXJXJXJXJXJXJXJXJXJXJX",
"JXJXJXJXJXJXJXJXJXJXJXJXJXJXJXJXJXJXJXJXJXJX0Xg * X . $ . X   o o o o @ .       . = R sXJXJXJXJXJXJXJXJXJXJXJXJXJXJXJXJXJXJXJXJX",
"JXJXJXJXJXJXJXJXJXJXJXJXJXJXJXJXJXJXKXJXJXy.+ X o * o * $ * * . o @ o . o * o * * . X X R ZXJXJXJXJXJXJXJXJXJXJXJXJXJXJXJXJXJXJX",
"JXJXJXJXJXJXJXJXJXJXJXJXJXJXJXJXJXJXJXSXY + * * o o o . $ . . . o o o o . . o o . . * * . * d.SXJXJXJXJXJXJXJXJXJXJXJXJXJXJXJXJX",
"JXJXJXJXJXJXJXJXJXJXJXJXJXJXJXJXHXJXBX< X * * * * * . . . . . .   . . o * . . o . o o o * $ X < sXJXJXJXJXJXJXJXJXJXJXJXJXJXJXJX",
"JXJXJXJXJXJXJXJXJXJXJXJXJXJXJXJXJXsX= . * $ $ @ o $ * . $ .   O   . . . . * o o * * * $ o @ * . ; SXJXJXJXJXJXJXJXJXJXJXJXJXJXJX",
"JXJXJXJXJXJXJXJXJXJXJXJXJXJXJXJXsXO o $ . . . . . . @ . . . .   . o o o . * * o . o * - * * @ - X s.JXJXJXJXJXJXJXJXJXJXJXJXJXJX",
"JXJXJXJXJXJXJXJXJXJXJXJXJXJXJXJXD X $ . . . . . ; , : @ .   X ; @ $ X : 1   . * , 1 - o * - - - = - BXJXJXJXJXJXJXJXJXJXJXJXJXJX",
"JXJXJXJXJXJXJXJXJXJXJXJXJXJXJXvXO o o o O $ 6 N k.N.b     - M *.- . . M S.1   : N.2XJ.j ; $ - * ; # #.JXJXJXJXJXJXJXJXJXJXJXJXJX",
"JXJXJXJXJXJXJXJXJXJXJXJXJXJXJX2.+ o O O ; ^ E. X.X|.C 6 b E..X_.l ; j |.3XG.M _.1X3X3X1XN.; * = - ; $ vXJXJXJXJXJXJXJXJXJXJXJXJX",
"JXJXJXJXJXJXJXJXJXJXJXJXJXJXSX> O o   ; _ E.[.oX+X+X XW.+X:X,X2X:X=X:X1X3X3X1XyXrXyX2X.X:X|.5 * - >   3.JXJXJXJXJXJXJXJXJXJXJXJX",
"JXJXJXJXJXJXJXJXJXJXJXJXJXJXsXX O   $ Q Y.*.^ ^ ;.OX<X,XOX,X,X,X1XyX1X1X3XgXhXyXrXE.c. ...J.C.: - % - ; PXJXJXJXJXJXJXJXJXJXJXJX",
"JXJXJXJXJXJXJXJXJXJXJXJXKXJX8X+ o O 9 0.%.~ =.0.=.=.@X>X,X@X>X2X>XiXtXrXyXyXrXtX>X2X<X<X:XN.J.C $ * -   9XJXJXJXJXGXJXJXJXJXJXJX",
"JXJXJXJXKXJXJXKXJXJXJXJXKXJXF X O % ~ =.-.`.[.[.wX[.[.>X>X@X>X>X,X>XtXiX1X1X<X<X<X<X<X,X1X1XD.J., . - # +.JXKXJXJXJXJXJXJXJXJXJX",
"KXJXJXJXJXJXJXJXJXJXJXKXJXCX* O O , %.i.{.Q.`.[.[.7X,X[.[.OXOXOX,X>XwXrX1X<X>XwX>X>X2XOXOX.X.X|.7 . $ @ g KXJXGXJXJXJXJXJXJXJXJX",
"JXJXJXJXKXJXJXKXJXJXJXKXJX0X+ % O w -.I.T.T.Q.{.Q.{.Q./._.)._.[.[.,X>X>X<X,X2X,X>X).[.)..X X.X.X) @ $ % , PXJXHXJXKXJXJXJXJXJXJX",
"JXJXJXKXJXKXJXJXJXJXJXHXJXd.+ o % X.I.T.r.$.X.O.=.-.T.C.E.Q._.[.OX[.OXOX,XOX X X XE.Y.C.E. X_. XL.: @ - % CXJXJXJXJXJXJXGXJXJXJX",
"JXKXJXJXJXJXJXJXJXJXHXJXHXR X O , r.r.r.].].1 1 L X.$.B.B.T.Q.)._.).OXOXOX).).E.S.6.6 c O.V.|.!..Xj $ - % mXJXJXGXJXJXJXJXJXJXJX",
"JXJXJXKXJXJXKXJXJXJXJXSX$.% o O w r.T.L 0X-X: - x $.X.-.0.Y.T.`.Q.E._.)._._.W.N.[.a.: : 7.r.U.)..Xk.$ % - m.kXFXJXJXJXJXJXGXGXJX",
"JXKXJXJXJXKXJXJXJXHXJXpX& > O % P {.T.Z 5Xv X X z i.L =.*.0.T.`.Q.(.Q.W.E.R.Y.Z.].I * X } ]._ #X.XL.7 @ ; s d VXJXJXJXJXJXJXJXJX",
"JXJXJXJXJXJXJXKXJXHXJX0X& % % , $.{.`.-.8X+.: 3 6.i./ %.;.-.Y.Q.Y.^.E.E.E.S.V.m.].g * @ 7.iX_ #X$XXXD.@ - 7 7 bXJXHXJXJXJXJXJXJX",
"JXHXJXJXKXJXJXJXJXHXJXaX, , , H r.[.7X'.r.r.B.E.oXU._ ;.v.Y.Q.Q.E.E.Q.E.W.W.A.}.!.-..... XeX}.$X:X3X4Xj - m 7 bXJXKXKXJXJXGXJXJX",
"KXJXJXKXJXJXJXJXJXHXJXVX8 8 w O.T.6XwX#X'.{.T.!.#X XE._.).OXOXoXoXOX+X+X$X&X$XXX}.!.Q.`.#X%X%XgX3X4XxXXXs b s CXJXJXJXKXJXJXJXGX",
"JXJXJXJXKXJXJXKXJXJXJXDXX.8 L =.T.7XeX7X$X7XeXeX%X$X$X<X<X<X<X%X$X$X1X3X%X3X1X%X%XtX>X>XtXzXzXlXjX4XnX4Xh.d v.FXJXJXJXJXKXJXJXJX",
"KXJXJXKXHXJXJXJXKXJXHXJXqXi ~ r.T.6X7XwXtXtXhXzX7X7XgXgXyXtX%X%X%X%X%XgX4X3X3XgXgXgXgXkXlXlXlXlXjXjXxXxXh.d aXJXJXJXJXJXGXJXJXGX",
"JXJXJXJXJXJXJXJXJXJXJXJXZXe ~ X.i.{.6X7X7XtXtX7XgXtXyXhXyX$X$X%X&X$X%X4XgXgXrXrXgXhXhXkXcXcXcXlXjXjX4XxXz.j.SXJXHXJXJXJXJXJXJXJX",
"HXJXJXKXKXJXKXJXJXJXJXJXJXs.A X.r.I.{.6X7X7XwX7XeXeX7XeXoX~.Q.&X&X&X:X4XgX1X<XtXtXtXyXhXkXlXlXzXjX4X4X4Xz.eXJXJXJXJXJXGXJXJXJXJX",
"JXJXJXJXJXJXJXJXJXJXJXKXJXpXe ~ r.r.{.`.'.[.@X7X7X#X#X$Xv.I.I.~.}.&X%XXX&X%X$X$XeX7XeXeXtXhXhXzXgX%XXXXXj.vXJXJXJXJXJXJXJXJXGXJX",
"JXJXJXKXJXJXKXJXJXJXJXHXJXBXe Z E o.r.I.'.`.`.`.'.oXoX'.^ o.%.o.~.}.}.XXK.&X&X#XoXoX@X#X%X7X3X%XXX}.K.K.w ZXJXJXJXJXJXJXGXJXJXGX",
"JXKXJXJXJXJXJXJXHXJXJXHXJXPXA e Z ~ o.I.I.I.U.U.~.~.!.B.( Z r r /  .m B m.m.!.W.!.'.oX~.}.'.&X}.}.m.z.h.T SXJXJXJXKXJXJXJXJXJXJX",
"JXKXJXKXHXJXJXJXJXJXJXJXJXDXR 8 Z Z S o.I.I.I.U.U.R.R.c.| / / / n B ) ) m.A.R.A.V.R.Y.U.U.A.U.m.z.j.z.d pXJXHXGXHXJXJXKXJXJXJXJX",
"JXJXJXJXJXJXKXJXJXJXKXKXJXLXf.e e Z Z S o.;.M.I.b.b.b.x.| ^ %.U.A.~.Z.Z.N.m.A.b.b.b.b.v.n.n.n.z.M.j.j.r BXJXKXJXJXJXJXJXKXJXKXJX",
"KXJXJXJXJXJXJXJXJXJXJXJXJXHXqXA 8 e y Z W o. .x.x.n.N. .| ! O.Y.W.W.D.m.Z.m.v.c.x.x.x.x.l.M.j.j.S j.d 5 ZXJXJXJXJXKXGXJXJXJXKXJX",
"JXJXJXJXKXJXKXJXKXJXKXJXHXJXMXE 5 u u r S ` _  . .l.*. .! / ^ I.R.W.m.z.z.k.x. . .l.l. .l.) ) ` B d i % BXJXJXJXJXJXJXJXJXJXJXJX",
"HXKXKXKXKXKXGXJXKXKXKXKXHXJXDXg.2 5 8 u Z S W ( _ _  .( p y S S ) j.m.z.h.B )  ._ _ ) ( ` ) ) B s B qX0XFXHXJXHXHXKXKXHXKXKXKXHX",
"KXKXKXKXKXKXGXJXKXKXFXHXKXKXGXMXBX6X5 i y p m W W ( ( W p 7 4 A y p s s p m ( ( ( ( ( ` m W m p i aXJXHXJXGXGXJXHXKXHXJXKXKXKXKX",
"KXHXJXHXGXKXKXGXJXJXJXJXJXGXJXJXJXJXpXe u y b n W ( N m b p i 5 A Z 4 4 p p m ( ( m m m m p 7 7 fXJXGXHXKXKXJXJXJXJXJXJXKXGXJXKX",
"KXKXKXKXKXJXJXJXPXvXvXPXJXJXJXJXSXpX6XT l y r p b m m N n a S o.%.M.S ) ) b m m m m n p 7 5 | VXJXGXGXGXKXJXPXvXbXNXSXJXGXHXKXKX",
"KXHXHXJXJXCXaXuXQ.V.~..XbXJXDXvX4.2 F Y ] K l j j b M M M l y ` o.M.j.j.B m m m b s p 7 ^ dXKXJXGXJXJXHXJXPXT.W.<X).yXVXHXHXHXKX",
"KXHXJXFXuXU O.c._.V.B.W..XfXy.J F F Y E I L U I j b b b n j l u u s M B B m m M b j u x y.qX0XSXJXJXHXGXFXs.X. XL.k.L.3XbXFXJXHX",
"HXJXDXd.9 ~ v.b.L.XXk.6.|.D.' ] Y R I Y I U K T H 8 u l j j l n m ( C B N m p M N ; 9 9.[ v h ].aXZXFXJXdXe *.).c.l.L.XXXXcXKXKX",
"JXLXi.1 k =.n.R.|.XXP.k.C.L.C.{ { 1.3.R U U K U U t 8 8 0 c l y a S N m p p b B B n 9.w.1.[ 9.q.7.7.iXvXT.k *.V.! Z.P.L.J..XPXJX",
"JX0X, 0 ] 0.B.| S..XP.K...D.J.6.7.0.0.4.@.+.U U ] ] w 0 0 8 8 r y p r p s M W B M u.(.5.T 1.q.u.e.F.0.B.v./ { ..! S.L.Z.N.L.cXJX",
"HXt.< k O.-.OXc.Q Z.D.K.N k.L.(./.w.7.9.3.1.+.+.] #.~ t H y t k a a a m m ( W ! u.^.9.U +.9.q.w.w.q.| V.A.l n n | S.D.k.S.:X:XAX",
"PXJ 9 L %.v.W.:XC b N.D.C b K.=X/.F.u.p.y.0.1.@.@.#.9.^ / ^ / / / W W W _ ` / 9.^.F.[ U 2.3.3.q.w.9.L *.c./ k k | J.J..._.L.K.kX",
"dX2 9 ] | v.Y..X3X) M J.C x ..|.=X(.^.p.y.q.q.3.3.=.y.u.=.x.;.o.o.o. . ._ ^ 9.0.0.0.T R 4.3.q.y.y.3.] / ^ k t k ^ k...B.D.J.k.1X",
"].< 9 L ;.| 6.S.L.XXC k.M 1.G./.G./.^.w.3.q.q.0.7.5.y.u.^.v.U.U.b.v.x.-.0.^.F.0.7.&.R R 4.3.q.a.t.t.R H H G G G L ! | V.Z.( k.1X",
"T 1 e L v.S./ ..J.L.L.Z.l 7.=X/././.w.1.+.9.q.w.0.0.0.u.^.u.u.Y.B.^.9.w.p.w.5.5.5.$.T T R 4.t.y.t.#.R G H H L H H k ^ N...n A.L.",
"D 1 1 L |  X}.!  .Z.L.J.0 6.G.G.=XF.7.T I 1.q.C.0.w.0.u.(.u.2.#.3.e.8.,.6.6.5.5.5.1.Y R R 4.2.y.t.+.#.D L H H H Z G ^ | u Q E.m.",
"g 1 < K ~ c.}.XXz...J...0 H.H.H.H.C.:.P Y T 5.q.q.w.0.q.^.y.2.R 3.-X7.{ ,.5.,.&.5.4.R Y Y 4.3.a.t.#.$.D H ~ L H H L Q k 0 Q | iX",
"9 > > H ~ ^ k.A.D.k.C.l x G.H.H.8.8.J F J Y [ 5.q.w.w.0.u.q.t.#.4.d.>.{ 7.6.,.&.5.{ [ Y Y 4.s.s.t.#.#.G A ] L H H H / t H Q J mX",
"9 > = 0 ] l M ..c.V.*.w &.G.8.<.<.,.f f J U +.5.w.F.w.w.w.u.y.L < 1 1 M 6.7.5.5.5.[ I R R 4.t.s.t.#.#.R e L ~ K Q H K Q H 9 k BX",
"f < = < Y ' Q ..c.0.H g <.H.C.<.8.I 2 f J U U { 7.w.u.w.w.u.3.+.h h I >.&.7.5.&.{ } I Y [ 4.2.t.2.#.2.t.D g L L K ' M Q < > #.SX",
"Y f > = 9 } ' &.*.l 9 1.C.H.<.<.<.2 f f F I U ] 1.w.C.w.F.w.@.1.4.*X@.{ 5.7.7.@.{ I v Y Y 4.4.t.R t.t.4.Y e G K ' ' } w < 9 9XJX",
"pXF h ; > h K L g w u./.8.8.<.H.v 2 2 g J P U [ { 1.q.F.w.w.3.9.3.*X{ { 5.5.:.{ U v z Y Y [ :.y.t.4.a.t.P I U K K Q w > f 2.PXJX",
"HXs.Y 9 1 < 1 9 K 3./.H.<.<.<.V 2 2 f g z K U U [ @.7.q.0.F.^.0.1.2.{ ,.,.:.:.[ v v z J z [ >.:.3.[ 1.q.[ U 1.3.@.] 2 w U dXJXHX",
"JXZXU ] 6 > f [ 9.:.<.>.<.>.>.c 2 2 f g J K I U U [ 1.5.7.w.].^.{ { { ,.{ { [ v v z z z g I >.v :.7.:.>.1.>.I v U +.+.Y qXKXKXHX",
"HXJXpXP f f +.[ V V >.>.H.dXfX< 2 f f F J I [ [ [ ] [ { 5.w.(.y.&.@.{ { { } I I z z h z h c v z v 4.>.v [ >.V v c h J d.SXJXFXHX",
"HXHXJX].9 z U V <.F.;XvXSXJXVX< 2 f F F J U [ :.[ [ { { :.q.^.w.7.&.&.:.[ >.[ v x z z h h h h h f 4.pX-Xv v ' q.-XsXZXSXKXFXFXFX",
"FXFXJXDX9XuXCXZXPXSXJXJXJXJXsX2 f f F J I ] [ 1.5.:.{ :.5.q.e.e.6.7.,.5.1.:.>.{ V v z c z c c v 9XSXJXLXmXsXZXSXJXJXJXJXFXFXFXHX",
"FXFXFXKXJXJXJXJXJXKXFXFXFXJXdX2 D D F F I [ 4.7.7.7.7.5.7.q.a.e.8.7.7.<.7.7.,.{ } ' x x x v c ;XJXKXFXKXJXJXJXKXFXFXFXFXKXFXFXFX",
"FXFXFXFXFXFXKXFXFXFXFXFXFXJX0X2 D D F Y U T :.3.7.q.w.q.p.=X/.^.H.e.e.e.e.8.7.5.>.} ' ' ' } M iXJXFXFXFXFXFXKXFXFXFXFXFXFXFXKXFX",
"HXFXFXFXFXFXFXFXFXFXFXFXFXJX8X2 D F F P I U [ 7.5.7.e.y.e.a./.F.F.F.e.e.F.e.8.<.,.{ { { ,.,.<.;XLXKXFXFXFXFXFXFXFXFXFXFXFXFXFXFX",
"FXFXFXFXFXFXFXFXFXFXFXKXKXJXf.A F F P P I U :.1.9.7.q.e.e.e.(./.F.=X=Xe.=X=XF.8.7.7.,.0.8.H.H.=XSXKXFXFXFXFXFXFXFXFXFXKXFXFXFXFX"
};
