/* XPM */
static char *_fb4e2b1978e4558c217e7992614f032[] = {
/* columns rows colors chars-per-pixel */
"64 64 241 2 ",
"   c #0A090E",
".  c #05050C",
"X  c #0D0C13",
"o  c #080C17",
"O  c #120E14",
"+  c #100F18",
"@  c #0D101B",
"#  c #131116",
"$  c #1B1314",
"%  c #13131B",
"&  c #1B171B",
"*  c #160A0C",
"=  c #261919",
"-  c #341D19",
";  c #38211C",
":  c #2D211E",
">  c #0C1525",
",  c #131622",
"<  c #1A1A23",
"1  c #171B29",
"2  c #131F32",
"3  c #231E23",
"4  c #1D2535",
"5  c #1B212F",
"6  c #272426",
"7  c #392A27",
"8  c #303237",
"9  c #48241D",
"0  c #582B1E",
"q  c #472C25",
"w  c #572D21",
"e  c #593428",
"r  c #583E34",
"t  c #49352F",
"y  c #6A3828",
"u  c #763A27",
"i  c #6A3E31",
"p  c #6B2E21",
"a  c #632D1E",
"s  c #3C4337",
"d  c #52463B",
"f  c #7A412E",
"g  c #6C4434",
"h  c #69493B",
"j  c #744433",
"k  c #7C4534",
"l  c #754B3C",
"z  c #7B4D3B",
"x  c #794836",
"c  c #78513E",
"v  c #6A402F",
"b  c #1B304D",
"n  c #253347",
"m  c #343F41",
"M  c #273B59",
"N  c #343E53",
"B  c #243E61",
"V  c #1E3E62",
"C  c #453E42",
"Z  c #364143",
"A  c #3A4445",
"S  c #3D474A",
"D  c #354658",
"F  c #24456A",
"G  c #3B5876",
"H  c #2E4C71",
"J  c #454B48",
"K  c #565B4A",
"L  c #424D52",
"P  c #475257",
"I  c #51554F",
"U  c #694E42",
"Y  c #734F41",
"T  c #6B5246",
"R  c #735545",
"E  c #7D5543",
"W  c #795A49",
"Q  c #745C53",
"!  c #5C624C",
"~  c #5D6656",
"^  c #656C5A",
"/  c #776258",
"(  c #6C634D",
")  c #586E78",
"_  c #727A68",
"`  c #6D716F",
"'  c #4D5969",
"]  c #823E28",
"[  c #813F31",
"{  c #84412B",
"}  c #8B452C",
"|  c #834532",
" . c #834C3A",
".. c #8C4D3A",
"X. c #8A4934",
"o. c #924B33",
"O. c #924E3B",
"+. c #984236",
"@. c #88523D",
"#. c #95533D",
"$. c #9B543C",
"%. c #9A553B",
"&. c #91492F",
"*. c #A2583E",
"=. c #845B45",
"-. c #885A45",
";. c #935B45",
":. c #9C5B43",
">. c #985844",
",. c #A35D43",
"<. c #A45846",
"1. c #85634D",
"2. c #8C644B",
"3. c #8B6349",
"4. c #93644C",
"5. c #93694E",
"6. c #9A654B",
"7. c #8A6551",
"8. c #8C6A54",
"9. c #876957",
"0. c #936D53",
"q. c #9B6C53",
"w. c #946854",
"e. c #8D705E",
"r. c #957056",
"t. c #9C7155",
"y. c #94735B",
"u. c #9B755B",
"i. c #9C795D",
"p. c #A46246",
"a. c #A3644B",
"s. c #AB6A4C",
"d. c #A8674B",
"f. c #A36B52",
"g. c #AA6C52",
"h. c #A66754",
"j. c #B26954",
"k. c #A37155",
"l. c #A2755A",
"z. c #AB7B5D",
"x. c #A87659",
"c. c #B47859",
"v. c #B0694A",
"b. c #8A7365",
"n. c #9D7D62",
"m. c #967866",
"M. c #877470",
"N. c #A37B62",
"B. c #AA7D61",
"V. c #A47760",
"C. c #B77E61",
"Z. c #7B8470",
"A. c #998376",
"S. c #8A8A75",
"D. c #A48166",
"F. c #AB8265",
"G. c #AD866A",
"H. c #A5866A",
"J. c #B38A6C",
"K. c #B68466",
"L. c #A78B76",
"P. c #B58D73",
"I. c #B79679",
"U. c #AD9176",
"Y. c #C7967B",
"T. c #C58D72",
"R. c #2C5B87",
"E. c #2F5C8D",
"W. c #356389",
"Q. c #356897",
"!. c #2E6493",
"~. c #326EA4",
"^. c #3678AC",
"/. c #2E78B2",
"(. c #337CB3",
"). c #397EB3",
"_. c #337EB8",
"`. c #2D72AA",
"'. c #547991",
"]. c #707B8D",
"[. c #4979A5",
"{. c #3780B7",
"}. c #3A82B6",
"|. c #3583BC",
" X c #3B84BB",
".X c #3C89BE",
"XX c #3788BF",
"oX c #3F90BF",
"OX c #568296",
"+X c #6E859A",
"@X c #4B85AC",
"#X c #4189BD",
"$X c #4486B6",
"%X c #538BB6",
"&X c #5989AF",
"*X c #7C95AC",
"=X c #7499B7",
"-X c #6B91B1",
";X c #7AA8BE",
":X c #3788C0",
">X c #3B8CC2",
",X c #3887C0",
"<X c #3D91C4",
"1X c #3B94CA",
"2X c #3694CC",
"3X c #3B98D0",
"4X c #4293C4",
"5X c #4597CB",
"6X c #4696CA",
"7X c #908F8F",
"8X c #BA9D81",
"9X c #A68E84",
"0X c #BEA38A",
"qX c #AEAC9C",
"wX c #8898AA",
"eX c #939DA8",
"rX c #9CA3AC",
"tX c #95A1AA",
"yX c #9AA7B4",
"uX c #8BA3B5",
"iX c #A4A6AB",
"pX c #A5ABB3",
"aX c #ADB3B7",
"sX c #B5B8B9",
"dX c #B6B7AA",
"fX c #C19E82",
"gX c #C5A488",
"hX c #C8B39B",
"jX c #D5B498",
"kX c #C0A895",
"lX c #C7B8A7",
"zX c #D3C8B4",
"xX c #EECDB0",
"cX c #B9BDC1",
"vX c #D9DCDB",
"bX c #CDD4C7",
"nX c #FFE7C8",
"mX c #D9E5E4",
"MX c #FEFEFE",
"NX c #F4F6F5",
"BX c #E8EAE9",
/* pixels */
"(.(.(.(.(.(.(._.(.(.{.(.(.).(.).!.{.{.{.{.{.{.{.!.{.{.{.{.{.{.{.{.}.}.}.}.|.{.{.}.}.oX}.}.}.}.}.XX}.}.oX$X.X X.X X#X#X$X.X#X#X#X",
"(.(.(.(.(.(.(.(.).(.(.(.(.{.(.(.{.{.{.{.{.{.{.{.{.{.{.{.{.{.@X{.{.{.}.oX@X-X-X%X%XoX{.{.}.}.}.}.}.oX}.}. X X X$X X#X.X#X X#X X#X",
"(.(.(.(.(.(._.(.(.(.(.(.{.{.(.{.{.{.{.{.{.{.{.{.{.{.{.{.{.{.{.{.OXuXdXdXdXhXhXhXhXdXyX;X}.{.}.}.}..X}..X X X X X X.X X.X$X#X#X#X",
"(.(.(.(.(.(.(.(.(.(.(.{././.{.^.{.{.{.!.!.{.{.{.{.{.{.!.{.{.@XqXqXI.I.H.D.H.H.H.H.U.I.0XdX=X{.{.}.}.}.}. X$X X X X$X X$X X X#X X",
"(.(.(.(.(.(.(.(.{.{.{.`.{.^.{.`.{.{.{.{.{.{.{.!.{.!.{.{.{.OXqXI.D.r.r.D.D.D.D.D.D.D.D.D.I.hXpX}.}.}.}.}..X}.}. X X X X#X X#X X#X",
"(.(.(.(.(.(.(.(.`.`.{.{.^.{.{.{.!.{.{.{.{.{.{.{.{.{.{.{.tX8XD.r.r.i.i.i.D.5.D.8.D.D.D.5.H.H.I.dX%X{..X}..X}. X X X$X X X#X X#X X",
"(.(.(.(.(.(././.{./.{.{.`.{.`.{.{.{.!.{.!.{.{.{.{.!.{.qXI.r.r.r.5.5.5.3.3.3.c 3.5.5.8.D.D.D.D.U.zX&X{..X}.}.}.}. X$X X X$X X X X",
"(.(.(.(.(.(.(.(.`.{.`.{.{.{.`.{.{.{.{.{.{.{.{.{.{.{.qXH.r.r.r.3.E 3.3.5.3.3.3.3.3.3.W 3.3.8.D.5.U.dX%X{.}..X}..X X_. X X X X#X X",
"{.{.|.`.{.`./.{.{./.{./.{.{.`.{.`.{.{.{.{.{.{.!.{.qXJ.8.5.5.3.3.3.3.&.c f f v u j c c 3.3.3.D.D.y.I.dX X}.}.}. X X$X X X X X X#X",
"`.`.{.{.|.{./././.{.{.`.`.{.`.{.{.{.!.{.{.!.{.{.eXI.1.5.3.3.=.@.c u u } ] } } u u u y v c c c ( 8.y.0XuX|. X}.}. X{.{.$X#X X X X",
"{.|.{.`.`.|./././.{././.{.`.{.{.{.`.{.`.{.{.`.*XI.3.3.3.3.c { u u } &.&.&.&.&.&.&.z f a 0 v c E 1.1.H.qX%X|.}.}. X X X X X X}.#X",
"|.`.|.`.{.`.|.`.{././.{.`.{.{.`.{.`.{.{.{.`.OXqX8.1.1.@.z y u ] } &.&.&.%.%.&.&.&.&.&.} u 0 e g c 1.9.8X*X_.}.}. X X). X}. X X X",
"`./.{.`.`.|.`.|.|.`.{.{.{.{.{.`.`.{.{.`.^.}.qXD.c =.W g a p { { &.&.&.%.%.%.%.%.p.,.%.@.f f 0 q g c 1.H.eX|.}.}.}. X}. X X X X X",
"|././.|.|./.|.`.`.{.`.`.{.`.{.{.{.{.`.{.`.*XU.c c @.v 9 p u { &.&.%.*.%.*.*.p.,.,.,.%.%.%.f f ; q v W D.-X{.}.}.}.}.}. X}.$X X,X",
"|././.{.|./.|.`.|.`.{.{.{.`.`.{.{.`.`.{.}.0X3.x c g 9 a { o.$.$.p.*.,.v.v.v.v.%.v v e w v f } v = e 7.+X{.}.). X}. X X X X X X,X",
"/./.{./.`.|.`.|./.|.`.{.{.{.`.{.`.{.{.`.-XU.c c g 0 u } o.$.o.X.%.v.,.v.v.v.} 9 : $ = - ; ; e g : ; S.#X(.}.}.{.}.}. X). X X X X",
"/.|././././.|./.(./.(.(.(.(.(.(./.(.)./.wXm.j g e y | >.+.i q 9 e { p.v.s.:.y 9 w i -.;.w.=.i j e * A.=X/._. X)._.[. X_. X X X X",
"/./.|./.|./././.(.(.(.(.(.(.(.(.(./.^.^.7Xw.Y e e u >.i - = = 9 f %.v.c.s.%.;.>...>.<.h.h.V.h.;.h * g 7X-X)._.).,X,X X X X X X X",
"|./././././.|./.(.(.(.(.(.(.(.(.(./.)./.&Xn.E q i >.i 9 w g  .>.p.d.s.s.,.#.@.X.| X.>.<.>.>.w.w.E $ ; 3.9X-X X X_. X).{._. X X,X",
"/.|.|./.|./.|./.(.(.(.(.(.(.(.(.(.^.^.(.`.@Xm.v 4.i e w.c.h.>.O.#.%.p.:.%.#.f p 9 q e i i i -.;.4.7   v e.A.&X4X X_. X X X X|. X",
"|./.|./././.|./.(.(.(.(.(.(.(.(.(./.(.).(.@Xb.t 4.x C.C.a.>.} u f @.s.,.:.>.f 0 0 9 q w 9 e -.w.l.R * - h w.M.[.$X).,X,X{. X X X",
"/.|././.|./.|./._.(.(._.(.(.(.(.(.)./.).`.&X/ - 7.B.C.h.<.k w 9 a #.s.p.a.:...f p u | X.[ -.>.;.l.U.$ - q W b.wX%X$X_.[. X X_.,X",
"/.|./.|././././._.(.(.(.(.(.(.(.(.(.(.`.`.&XT = u.C.6.-.e ; 9 a f d.s.p.p.>.#.O.X.[ | | [ ;.4.4.q.xXt 3 - r 1.m.7X].-X&X$X X X X",
"|./.|./.|.|./.|.(._._.(.)._.(.(.(.(.(.^./.@XJ = n.z. .9 e  .f f ,.p.d.s.p.%.#.>.$.O.O.-.>.>.w.a.V.xXb.3 $ q h e.9X].].[.[.).|. X",
"_.|._./._._._._.(._.(.(.)._.(.(.(.(./.(./.^.8 3 V.l.-. .>.X.X.$.p.6.p.v.s.:.O.%.:.%.$.#.#.;.w.w.V.nX7.* $ = r e.m.].[.[.[.).|. X",
"|./._.|._._.(._._.(._.(.(.(.(.(.(.^.(.(.`.R.+ ; f.h.:.>.O.O.>.<.p.,.v.c.c.s.:.#.%.%.%.>.>.;.q.4.P.nXE * * $ ; Y m.7X[.,X_._.|. X",
"_._._._._._._._.{.(._.)._.(.(./.(./.).~.!.V X 7 l.q.h.;.O.>.*.$.,.s.K.K.T.K.K.K.p.%.*.p.a.q.l.w.fXnXV.- $ $ 3 r M.7X].[._. X X X",
"|.|._._.{._.{.(._.{.)._.).(.).).).).).!.R., X 7 l.l.h.>.$.>.*.*.c.K.T.T.T.T.u %.s.&.p.s.s.g.l.q.jXnX8Xy ; $ $ r m.` '.4X X|. X|.",
"/.:X/.|.:X/.|._.{._.{._.)._.(.)./.^.~.~.b . o q V.h.:.:.a.<.,.*.c.#.s.T.Y.:.p O.{ o.%.v.j.j.V.V.jXnXfXw e + $ T / T ].$X#X X X X",
"/.|.:X/./.:X{.{.{.{.{.)._.).(.).^.^.~.B   + X 7 N.w.h.s.s.d.*.$.O.$.>.h.g.>.k y f %.6.p.z.C.C.B.xXxXgXi q = 7 r 8 I ` [._.,X,X X",
":X|./.|.:X|._.{. X_.)._.).)._.).).).F + O + - e l.l.x.c.j.d.p.,.O.u x  .|  .y y k ..6.p.s.c.C.J.jXjXfX-.U 7 r - t C ` [.).4X X,X",
"|.|.|.:X_._.|.{.{. X X).).#X).).$XE.2 + # + 9 y n.V.C.c.c.s.p.6.-.j i y y k u  .x  .@.;.6.k.C.C.fXfXfX7.T T q 3 3 N W.[._._.).4X",
"|._.|.|. X_.#X_. X{.{.{.}.{.).)./.M , , % X q l k.K.K.K.c.g.a.-.k -.>.[ +.<.<.<.:.;.6.l.f.d.c.J.D.U.I.G.T t $ & % 8 [.(._.,X,X4X",
"|.|.|.|. X X). X{. X X{.(.}.(.{.Q.b , , # X 9 l x.K.K.K.f.f.6.;.<.<.j.j.j.j.j.j.j.h.h.t.k.x.F.G.u.D.H.h ; $ # X X D [.).[.,X X X",
"|.|.|. X_.,X X_. X{. X{.}.}.}.}.~.b 6 , < + - v i.J.K.K.f.f.k.g.j.j.<.h.h.h.>.+.<.O.#.| X.f.J.l.u.G.e.: $ X X X + 8 D W.). X X,X",
"|.,X|.).4X_. X X X X}.{.{.{.(.}.^.B 4 < 3 & = w u.J.K.F.k.6.@...X.[ p [ k p p u } #.:.#.@.s.J.i.r.H.T   # O X X 3 8 6 H Q.~.4X X",
" X,X X X X X_._._._. X_._.|._.{./.E.5 < & $ & q 8.G.D.z.k.@.#.>.>.[ [ k i i +.<.6.a.a.6.6.s.F.r.u.D.7   # # # & t 7 3 M M R. X X",
",X X X X,X_.,X X X|.,X X{._._.(./.E., # # $ $ 7 c D.l.x.k.>.a.d.h.h.<.>.[ [ -.<.p.d.a.6.6.x.D.r.y.8.& X # # # $ 1 & & < , R.,X X",
"4X X,X,X X,X X|._.|._.|._.|.|.{._.H 5 + # # X $ h y.i.l.k.;.6.f.h.h.>.[ k i l [ @.6.:.6.6.x.i.8.r.h   # % # X X o X % < 4 (.,X,X",
" X X X X,X X,X|.,X|.|.|.|.|.{./._.F 1 + % X X X & 0.i.u.l.w.6.d.<.>. .l k k h h l c @.@.t.t.r.1.r.7 o % X X X X X   + , R.,X4X,X",
" X,X X,X,X,X|.|.|.|.|.|.|.|.|._._.R.2 % + X   X . h D.r.i.5.4.;.-.Y l k k Y Y l g h l E 5.r.8.0.0.7 . 1 < + + X @ 2 b E. X X,X,X",
"#X X,X,X X,X|.|.:X|.|.|.|.|.|.|._.~.B n % X   X . ; y.1.r.r.3.-.Y Y l Y E E l Y Y U Y Y W 1.5.r.w.7 . + 1 < X X , Q. X,X X4X,X,X",
",X,X,X,X,X|.,X|.|.:X|.|.|.|.|./.).#X~.b , # # X X X R 8.1.0.2.E Y z E -.-.E W -.W Y Y Y W 1.y.r.5.t .   X , % o @ W.$X X,X X4X,X",
",X,X,X,X|.,X,X|.|.|.:X|.|.|.|.|. X).~.B < & % X X . 7 1.1.1.1.W Y Q 1.-.7.7.7.7.1.1.W Q W 0.u.5.q.d . X X % 1 @ o R.#X4X4X4X,X4X",
":X:X:X:X,X,X:X:X|.:X|.:X,X,X,X_. X_._.W.< & + O   X   h 8.( T U Y 1.9.w.9.w.w.b.b.9.9.Q 9.y.t.5.l.h . X X + % , X F $X.X#X4X X4X",
":X:X:X:X,X,X_.:X:X|.:X|.,X,X_. X X).#XQ.5 # O X X X   : W R U T Y Q 7.w.m.m.b.V.e.b.9.9.e.w.5.3.F.h . X o + @ , , M ~.>X#X,X.X>X",
":X:X:X:X:X:X:X:X,X,X|.,X|.|. X,X#X).{.Q.4 # X X X X X $ U W T d U =.9.9.e.m.m.M.b.b.9.b.w.r.4.0.G.c . X + + , % 2 !. X#X#X>X4X4X",
":X:X:X:X:X:X:X:X,X,X,X,X,X,X,X X X_. XE.& % X X   X   $ U R R U T / 9.b.e.m.m.m.m.M.9.7.0.q.5.D.U.W X # X X 1 1 V )..X4X>X4X#X>X",
":X:X:X:X,X,X,X,X:X,X,X,X,X,X,X,X.X(. XQ.4 & # o X X X # T 1.R T R W 8.m.m.H.A.A.m.y.r.t.t.t.0.B.J.1.6 % < + 2 R._.>X.X4X>X.X4X>X",
":X:X:X:X>X>X:X>X,X2X,X,X>X,X,X,X X{.^.^.F % # O O X X * c 3.1.R T U Y W / 1.8.u.i.u.u.i.l.u.l.P.I.y.8 3 3 X b 1X4X>X4X>X4X4X4X4X",
">X:X2X,X>X,X>X:X,X,X,X,X:X:X,X|.}..X(.E.H 4 % % % % # $ c 2.3.1.W E =.=.4.4.u.D.D.F.D.x.z.N.B.fXI.i.7 3 3 , R.4X.X>X4X4X<X4X<X4X",
">X>X>X>X>X,X>X>X,X>X>X>X>X:X:X,X.X.X X^.!.!.M 1 , 5 # $ E 4.3.4.2.-.3.5.q.l.z.F.J.J.J.F.D.F.C.fX0Xi.d 6 3 B ).4X4X4X4X4X4X<X4X4X",
"2X>X<X>X>X>X>X>X>X>X>X,X>X>X>X,XXX.X.X:X X|.~.1 1 5 # = W 5.5.5.w.6.5.q.t.z.F.P.P.P.H.F.B.J.fXfX8Xn.U 7 D ~.#X4XoX4X4X4X4X4X1X1X",
">X1X>X<X>X>X>X>X>X>X>X>X>X,X:X,X.X.X:X X X).4XW.n 5 & : 1.r.q.q.q.q.q.k.l.F.J.J.J.J.F.J.C.J.fX8XU.D.Q C D Q.6X6X4X4X4X4X4X5X%X;X",
") $X1X>X>X<X>X<X>X2X2X:X>X:X>X:X>X.X:X X,X X_.#X!.6 , 7 8.8.r.q.t.q.t.t.l.x.F.G.G.F.F.G.J.fXjXI.U.U.e.J '.n b ).5X5X5X4X5X#XOXvX",
"( ^ OX<X1X>X<X>X>X>X>X:X1X>X>X1X>X>X:X.X>X X).^.Q.F n J 7.8.0.t.q.t.t.q.k.t.x.z.B.z.F.F.C.gXzXfX0X9XA.sXeXD , n G @X5X5X5X4X+XmX",
"Z.K K Z.@X2XXXXX2X>X>X2X>X<X>X>X>X>X>X,X>X X_.).).).Q.Q 1.1.w.w.5.q.5.6.5.5.q.q.q.q.V.V.B.jXjX8XI.L.bXMXBX].m P S s D G ) }.) +X",
"Z.Z.! K Z.'.2X2X:X1X>X<X<X>X<X<X>X>X4X>X4X4X#X#X6X X[.W / 1.7.;.4.4.2.;.4.4.5.6.w.w.6.q.B.jXjXkXlXmXMXMXMXmX' P P P S S s Z s S ",
"s s Z.Z.s ! Z.{.3X<X>X<X<X2X<X<X>X1X>X4X,X#X4X6XQ.G C Y Y E -.E @.@.@.-.@. . .-.7.4.y.9XbXBXNXMXNXMXMXMXMXMX7XD P S P S D A A A ",
"s s s ! Z.Z.! ~ '.oX2X2XXX<X<X<X4X>X4X>X4X X6XR.> ].].` ` / / / / Q W Q 9.M.m.7X9XiXsXBXMXMXMXMXMXMXMXMXMXMXaXS P P P S Z Z s A ",
"bXZ.s s K Z.Z.~ ! ^ OX2X2XoX1X<X<X<X>X<X5X5XQ.o M *XwXuXyXyXtXrXpXiXeXrXpXsXaXcXcXcXbXMXMXMXMXMXMXMXMXMXMXMXvX' S P P S s Z Z Z ",
"Z.bXqXK s s K Z.Z.! ! ) $X3X1X1X<X1X5X4XQ.B > o '.*XwXwXeXrXrXyXiXiXpXiXpXaXaXaXsXaXvXNXMXMXMXMXMXMXMXMXMXMXNX` P S S S Z Z Z Z ",
"6 K qXbXZ.K s K ~ Z.! K ~ OXoX3X3X,XF > o o o b ].*XwXwXeXrXeXrXrXrXrXpXpXpXaXpXaXcXNXMXMXMXMXMXMXMXMXMXMXMXMXtXS P S S Z S Z Z ",
"6 6 6 Z.bXdX~ s s S Z.Z.! ^ ^ @X!.2 . o > > o G -X-XwXwXwXwXeXeXeXeXrXpXyXpXpXpXyXbXMXMXMXMXMXMXMXMXMXMXMXMXMXcXS P S S S Z Z Z "
};
